<svg xmlns="http://www.w3.org/2000/svg" viewBox="0 0 199.33 199.18"><defs><style>.a{fill:#ffc312;}</style></defs><title>services-icon-3 colour changed</title><path class="a" d="M195.57,147.75c-2.24-1.87-4.9-2-8.41-1.13a8.76,8.76,0,0,0-3.77-9.58c-2-1.52-4.48-1.65-7.7-.9V121.28a27,27,0,0,0-22.45-26.67l-20-3.45a13.06,13.06,0,0,1-10.43-9.67l-1.54-6.1c10-8,16.58-21.7,16.58-37.17,0-22.86-15-38.22-37.27-38.22S63.29,15.36,63.29,38.22c0,15.46,6.58,29.11,16.55,37.15L78.3,81.49a13.06,13.06,0,0,1-10.43,9.67l-20,3.45A27,27,0,0,0,25.4,121.28v8.34H3a3,3,0,0,0-3,3V187a3,3,0,0,0,3,3H27.93a217.47,217.47,0,0,0,62.89,9.2c31.07,0,68.69-6.93,101.14-32.65.72-.5,7.08-5.05,7.36-11C199.41,153.48,198.84,150.5,195.57,147.75ZM25.4,184H6V135.66H25.4Zm154.31-42.12c1.63,1.25,1.67,2.24,1.69,2.56,0,1.46-1.25,3.58-3.38,5.59l-2,.85a225.16,225.16,0,0,1-35.8,12.39,10.51,10.51,0,0,0,.57-2.89,22.69,22.69,0,0,0-.21-4.66,201.63,201.63,0,0,0,24.6-9.11c5.53-2.37,13.11-5.63,14.56-4.73ZM134.87,97.57l17.34,3a21,21,0,0,1,17.45,20.72v16.85c-2.07.81-4.35,1.79-6.89,2.88A197,197,0,0,1,138.62,150a12.65,12.65,0,0,0-1.8-2.32,14.58,14.58,0,0,0-10.23-3.92,178.54,178.54,0,0,1-23-.71V108l12.58,11a3.1,3.1,0,0,0,2,.75,2.31,2.31,0,0,0,.37,0,3,3,0,0,0,2.12-1.3Zm-34.31.08L83.1,86a18.75,18.75,0,0,0,1.06-3l1-4a31.34,31.34,0,0,0,30.74,0l1,4A18.75,18.75,0,0,0,118,86ZM121.29,91a19.25,19.25,0,0,0,7.3,5l-11,16.13L105.5,101.61Zm-52-52.81A38.38,38.38,0,0,1,71.51,25c4.47,2.42,13.42,6.13,26.37,6.13a79.63,79.63,0,0,0,23.23-3.67,3,3,0,1,0-1.77-5.77c-24.21,7.38-39.71.94-45.21-2.14C79.37,11,88.64,6,100.56,6c19,0,31.23,12.63,31.23,32.18,0,21.33-14,38.68-31.23,38.68S69.33,59.55,69.33,38.22ZM79.81,91l15.8,10.58L83.51,112.2l-11-16.13A19.21,19.21,0,0,0,79.81,91ZM31.44,121.28a21,21,0,0,1,17.44-20.71l17.34-3,14.22,20.85a3.06,3.06,0,0,0,2.12,1.3c.12,0,.25,0,.38,0a3.09,3.09,0,0,0,2-.75l12.61-11.06V142a28.63,28.63,0,0,1-8.87-3.76c-6.72-3.94-14.42-8.38-57.23-8.59v-8.36Zm156.92,40.4C126.6,210.64,45.25,189,31.44,184.77V135.68c41.24.18,48.1,4.21,54.16,7.77,6.23,3.65,11.63,6.79,41.21,6.31a8.32,8.32,0,0,1,5.74,2.15c1.67,1.69,2.41,4.4,2.18,8.06,0,.89-.22,3.59-5.53,5.72l-.2.08c-5.66,2.2-18.11,4.08-45.35.56a3,3,0,0,0-.82,6h0a215.45,215.45,0,0,0,27,2q13.5,0,21-2.84h0a225.6,225.6,0,0,0,47.45-15.1c6.19-2.64,12-5.1,13.33-4,1.49,1.25,1.63,2.21,1.6,2.82-.11,2.56-3.56,5.53-4.92,6.48Z"/><circle class="a" cx="15.72" cy="145.59" r="3.02"/></svg>