<svg xmlns="http://www.w3.org/2000/svg" viewBox="0 0 216.45 84.6"><defs><style>.a,.e{fill:#ffc312;}.b{fill:#231f20;}.c,.e{font-size:36px;font-family:PoetsenOne-Regular, Poetsen One;}.d{letter-spacing:-0.01em;}</style></defs><title>logo</title><path class="a" d="M161.26,17.35a2.38,2.38,0,1,0-2.38,2.38A2.39,2.39,0,0,0,161.26,17.35Z"/><path class="a" d="M191.53,24.8a2.38,2.38,0,1,0-2.38,2.38A2.37,2.37,0,0,0,191.53,24.8Z"/><path class="a" d="M130.33,22.21A2.38,2.38,0,1,0,128,24.59,2.38,2.38,0,0,0,130.33,22.21Z"/><path class="a" d="M115.43,41.17a1.68,1.68,0,1,0-1.67,1.67A1.68,1.68,0,0,0,115.43,41.17Z"/><path class="a" d="M110.69,44.72A1.68,1.68,0,1,0,109,46.39,1.68,1.68,0,0,0,110.69,44.72Z"/><path class="a" d="M135.91,19.83a1.68,1.68,0,1,0-1.68,1.68A1.68,1.68,0,0,0,135.91,19.83Z"/><path class="a" d="M155.58,14.87a1.68,1.68,0,1,0-1.68,1.68A1.68,1.68,0,0,0,155.58,14.87Z"/><path class="a" d="M168.48,14.87a1.68,1.68,0,1,0-1.67,1.68A1.67,1.67,0,0,0,168.48,14.87Z"/><path class="a" d="M196.91,24.89a1.68,1.68,0,1,0-1.68,1.67A1.68,1.68,0,0,0,196.91,24.89Z"/><path class="a" d="M208,38.55a1.68,1.68,0,1,0-1.67,1.67A1.68,1.68,0,0,0,208,38.55Z"/><path class="a" d="M213.79,53.76a9.94,9.94,0,0,0-9.94-9.95q-.33,0-.66,0a11.67,11.67,0,0,0-11.28-14.55A11.49,11.49,0,0,0,186,30.9a15.06,15.06,0,0,0-27.71-6.56,13.33,13.33,0,0,0-24.66,3.87,12,12,0,0,0-16.41,15,9.94,9.94,0,0,0,2.08,19.67,9.75,9.75,0,0,0,2.17-.24c0-.15-2-6.88-.34-11.21-.18-4.66,1.83-7.93,2.65-8.37l1.91-1.19c.79-.48,4.92-4.73,5.2-5,2.3-2.33,5.46-5.53,10.17-5.53.32,0,.65,0,1,0a122.38,122.38,0,0,1,12.31-.58c6.26,0,15.9.73,16.33.76,5.67.39,7.33,1.1,9.12,2.66l6.29,5.54a3.66,3.66,0,0,1,2,0c1.3.31,2.61.63,3.31.89A3,3,0,0,1,193.31,44a10.71,10.71,0,0,1,2.76,1.45h0c3.54,0,6.17,2.48,7.45,4.76a4.62,4.62,0,0,1,2.08,4.29,9,9,0,0,1,1.09,3.63c0,.55.08,3,.15,5.11A9.93,9.93,0,0,0,213.79,53.76Z"/><path class="b" d="M146.19,43.46c-.24-.87-1.55-7.76-1.55-7.76a154.88,154.88,0,0,1,28.83-.11,5.62,5.62,0,0,1,3,.93c.56.48,9.33,8.31,9.33,8.31l-37.09.4C146.85,45.26,146.44,44.32,146.19,43.46Z"/><path class="b" d="M143.06,45.55s.07-.46.12-1.17-1-1.73-1-1.73a13.59,13.59,0,0,0-3.66.31c-1.13.28-1,.66-1,.88a8.17,8.17,0,0,0,.53,1.23.53.53,0,0,0,.17.16l-7.78-1.54.08-.86s5.16-6.15,8.4-6.94c2.84-.69,3.66,1.9,3.87,2.76s1.29,7.74,1.29,7.74l-.64-.12Z"/><path class="b" d="M124.38,69.73l-7.24-1.11,29.54,7.77,59.39-1-7.62-.51a6.56,6.56,0,0,0,3.49-4.13h.32a3.06,3.06,0,0,0,3-3.33c0-.23,0-1.42-.11-3.35-.08-2.38-.18-5.33-.18-6a9.16,9.16,0,0,0-1.21-3.43c.68-1.6-.95-2.91-1.57-3.34-.88-1.75-3.23-4.51-6.72-4.16a9.72,9.72,0,0,0-4.38-2.06c.18-.44.39-1,.47-1.3a1.34,1.34,0,0,0-.8-1.56c-.85-.31-3-.8-3.5-.92s-1.11,0-1.26.64l-7.25-6.37-.11-.09c-1.29-1.14-2.38-1.85-8.1-2.24L169,33.17a150.86,150.86,0,0,0-26.94-.05c-5.06-.56-8.27,3.36-10.74,5.79-1.46,1.42-3.36,3.63-4.71,4.44l-1.9,1.19c-1,1.2-2,3.6-1.83,7.19-.35.82-1.49,4.24.33,10.17,0,.1,0,.2,0,.29A19.37,19.37,0,0,0,124.38,69.73Zm23.46,4c-1.44,0-2.74-3.77-2.91-8.55s.87-8.68,2.31-8.73S150,60.27,150.16,65,149.29,73.73,147.84,73.77Zm-2,.06-14.78-3a6.6,6.6,0,0,0,1.36-3.49l11.43,2.44-.16-1c-.11-.73-.21-1.47-.29-2.22-.75-7.4,1.36-12.57,3.08-12.75a1.54,1.54,0,0,1,1.09.48l-.45,0c-1.76.06-3,5-2.82,11A26.5,26.5,0,0,0,145.82,73.83Zm-22-11.64c0-3.85.73-7,1.64-7s1.63,3.12,1.63,7-.73,7-1.63,7S123.81,66.05,123.81,62.19Zm78.44,7.22L153.11,70c0-.57,0-1.15,0-1.73h4a3.38,3.38,0,0,0,2.3-1.14L161.14,65c.5-.63.29-1.13-.47-1.13h-8a28.44,28.44,0,0,0-2.09-7.53c-1.25-2.73-2.73-4.1-4.27-3.94-3.09.31-5.06,6.84-4.31,14.26,0,.44.1.87.15,1.31l-13-2.77a4.73,4.73,0,0,1-.42-1.23l12.38,2.74-12.53-3.92a55,55,0,0,0-.86-5.8A13.68,13.68,0,0,0,126.43,53l14.72,3.37-16.91-5c-.16-4.17,1.49-6.18,2-6.35,1.55-.34,3.6-2.45,6.11-5.17,5.8-6.28,9.46-5.37,9.49-5.36l.13,0h.14a148.74,148.74,0,0,1,26.81,0l1.59.11c5.54.38,6.31,1.06,7.29,1.91l.1.09c1.11,1,10.5,9.23,10.59,9.32l.17.14.22,0c4.31.45,5.86,2.2,5.88,2.22l.25.29.38-.06c3-.47,4.81,2,5.46,3.09l-3.77,2.64,2.12-1c-.74.78-1.2,1.7-.76,2.37,1,1.53,3.55.5,4.41.08a6.82,6.82,0,0,1,.8,2.32c0,.65.09,3.3.17,5.74h-5.34c-.76,0-1,.5-.47,1.13l1.75,2.17A3.38,3.38,0,0,0,202,68.3h1.75A1.48,1.48,0,0,1,202.25,69.41ZM189.66,71a6.59,6.59,0,0,0,2.8,3.62l-36.67-.86a15.55,15.55,0,0,0,.55-2.34Z"/><path class="b" d="M164.25,65a3.35,3.35,0,0,1,2.3-1.13h24.88A3.32,3.32,0,0,1,193.72,65l1.75,2.17c.51.63.3,1.14-.46,1.14H163c-.76,0-1-.51-.47-1.14Z"/><path class="b" d="M196.33,55.48a1.34,1.34,0,0,0-.16-1.24,2.39,2.39,0,0,0-2-.67H171.08A2.27,2.27,0,0,0,169,54.68a1.55,1.55,0,0,0,0,1.53c.57.88,3.11,4,3.22,4.12l.08.11.12.05c4.71,2.08,11.24,2.27,11.51,2.28H184a30.15,30.15,0,0,0,9.17-2l.06,0,.06-.05A12.52,12.52,0,0,0,196.33,55.48ZM177,60.78h12.43a34.88,34.88,0,0,1-5.49.88A41.43,41.43,0,0,1,177,60.78Zm18.19-5.25H169.89a.7.7,0,0,1,.12-.37,1.17,1.17,0,0,1,1.07-.48h23.13c.89,0,1.06.2,1.08.22s0,.14,0,.27S195.2,55.4,195.15,55.53Zm-1,2.21H171.52c-.38-.48-.77-1-1.08-1.38h24.38C194.63,56.79,194.4,57.27,194.14,57.74Zm-.51.83a6.41,6.41,0,0,1-1,1.19l-.48.19H174c-.37-.13-.73-.27-1.07-.42-.14-.16-.43-.52-.78-1Z"/><path class="b" d="M152.81,51.1c1.87.33,15.13,3.23,15.13,3.23l-3.4-.38a2.55,2.55,0,0,1,1.62,2c0,.77-1.11.84-3.23.82s-6-.39-7.09-.53A5.38,5.38,0,0,1,152,53.75C151.3,52.24,150.79,50.75,152.81,51.1Z"/><text class="c" transform="translate(8.42 41.84)"><tspan class="d">C</tspan><tspan x="21.96" y="0">AR </tspan><tspan x="0" y="32">SHINE</tspan></text><text class="e" transform="translate(10.63 40.43)"><tspan class="d">C</tspan><tspan x="21.96" y="0">AR </tspan><tspan x="0" y="32">SHINE</tspan></text></svg>