<svg xmlns="http://www.w3.org/2000/svg" viewBox="0 0 216.45 84.6"><defs><style>.a,.b{fill:#ffc315;}.b{font-size:45.43px;font-family:PoetsenOne-Regular, Poetsen One;}</style></defs><title>logo2</title><path class="a" d="M66.46,16.23a2.21,2.21,0,1,0-1.6-1.59A2.21,2.21,0,0,0,66.46,16.23Z"/><path class="a" d="M112.47,11a2.21,2.21,0,0,0,2.69-2.69,2.19,2.19,0,0,0-1.59-1.6,2.22,2.22,0,0,0-2.7,2.7A2.19,2.19,0,0,0,112.47,11Z"/><path class="a" d="M133.45,17a2.22,2.22,0,0,0,2.7,2.7,2.19,2.19,0,0,0,1.59-1.6,2.22,2.22,0,0,0-2.7-2.69A2.19,2.19,0,0,0,133.45,17Z"/><path class="a" d="M53.12,20.22a2.21,2.21,0,1,0,1.59-1.6A2.19,2.19,0,0,0,53.12,20.22Z"/><path class="a" d="M81.84,15a1.57,1.57,0,1,0-1.56-1.57A1.57,1.57,0,0,0,81.84,15Z"/><path class="a" d="M47.14,32a1.57,1.57,0,1,0,1.57,1.57A1.57,1.57,0,0,0,47.14,32Z"/><path class="a" d="M51.44,23.4A1.57,1.57,0,1,0,49.88,25,1.56,1.56,0,0,0,51.44,23.4Z"/><path class="a" d="M108.24,11.76a1.57,1.57,0,1,0-1.56-1.57A1.57,1.57,0,0,0,108.24,11.76Z"/><path class="a" d="M140.25,21.55A1.57,1.57,0,1,0,138.68,20,1.56,1.56,0,0,0,140.25,21.55Z"/><path class="a" d="M70.62,11.38a1.13,1.13,0,1,0-1.13-1.13A1.14,1.14,0,0,0,70.62,11.38Z"/><path class="a" d="M114.08,6A1.13,1.13,0,1,0,113,4.84,1.14,1.14,0,0,0,114.08,6Z"/><path class="a" d="M133.58,13.58a1.13,1.13,0,1,0-1.13-1.12A1.13,1.13,0,0,0,133.58,13.58Z"/><path class="a" d="M54.11,16.55A1.13,1.13,0,1,0,53,15.42,1.13,1.13,0,0,0,54.11,16.55Z"/><path class="a" d="M46.94,37.64a1.13,1.13,0,1,0,1.12,1.13A1.13,1.13,0,0,0,46.94,37.64Z"/><path class="a" d="M159,38a5.38,5.38,0,0,1,.82,3.14c0,2.2-1.56,3.75-4.42,3.75h-6.09a9.12,9.12,0,0,0,.47-2.92,9.34,9.34,0,1,0-18.43,2.13L116.93,44A.93.93,0,0,0,116,45h0a.94.94,0,0,0,.9.93l15.26.47a9.22,9.22,0,0,0,1.26,1.82,8.38,8.38,0,1,1,14,0,9.85,9.85,0,0,0,1-1.34v0h7.71c2.87,0,4.36-2.64,4.36-5.2A4.73,4.73,0,0,0,159,38Zm-56.35-1.34a6,6,0,0,0-3.22,1,6,6,0,0,0-5.68-4.11,6.24,6.24,0,0,0-1.3.14A6,6,0,0,0,88,28.49a6,6,0,0,0,.67-2.73L129,29.21s-4.18-3.11-5.86-4-2.86.2-2,1.58L88.48,24.41a6,6,0,0,0-1.93-3.21c5.86-1.91,15.86-3.63,29.41-.43-1.49-.49-18.94-5.95-32.26-.93a6.22,6.22,0,0,0-2.27,0A6.46,6.46,0,0,0,81,18a32.43,32.43,0,0,1,7.34-1.51c7.93-.45,21.53,0,26.75,2.67,5,2.54,16.21,9.11,17.25,9.72h-.88a138.78,138.78,0,0,1,21.2,4.21c-.38-.06-4.87-.79-4.75,0,.28,1.73,10,4.35,10,4.35l-.49-2.41c-4.29-3.45-10.94-5-16.44-5.66a6.05,6.05,0,0,0-7.42-8.06,5.53,5.53,0,0,0-5.5-5,5.36,5.36,0,0,0-1.06.1,7.2,7.2,0,0,0-13-3.17,5.51,5.51,0,0,0-8,2.71,116.67,116.67,0,0,0-18.44-.46,38.09,38.09,0,0,0-7.22,1.32,6.54,6.54,0,0,0-11.73,1.72,6.53,6.53,0,0,0-9.94,5.72v.08a8.49,8.49,0,0,0-.88-.05,7.52,7.52,0,0,0-6.11,11.91,7.22,7.22,0,0,0-2.16,5.17,7.3,7.3,0,0,0,7.29,7.29H82.29a.83.83,0,0,0,.83-.83h0a.83.83,0,0,0-.83-.83H57.49a.86.86,0,0,0-.23,0l-.41,0a5.67,5.67,0,0,1-5.09-8.13,6.58,6.58,0,0,1,1.67-2,.85.85,0,0,0,.25-.53.8.8,0,0,0-.21-.62,5.86,5.86,0,0,1,4.61-9.78,5.29,5.29,0,0,1,1.37.21.82.82,0,0,0,1-1,5.55,5.55,0,0,1-.11-1.07,4.88,4.88,0,0,1,8.27-3.51.82.82,0,0,0,.88.18.84.84,0,0,0,.53-.72,4.88,4.88,0,0,1,9.75.33,4.53,4.53,0,0,1,0,.52.82.82,0,0,0,1.15.85,4.28,4.28,0,0,1,1.72-.36,4.35,4.35,0,0,1,4.18,5.49,6.54,6.54,0,0,1-1,1.77.83.83,0,0,0,.68,1.3,4.35,4.35,0,0,1,4.27,4.33c0,.13,0,.27,0,.42a.82.82,0,0,0,.34.75.83.83,0,0,0,.82.08A4.33,4.33,0,0,1,98,39.18a.84.84,0,0,0,.55.72.82.82,0,0,0,.88-.21,4.33,4.33,0,1,1,4.48,7.09.79.79,0,0,0-.55.77h0a.82.82,0,0,0,1.05.8,6,6,0,0,0,3.39-2.75h.43v-5A6,6,0,0,0,102.61,36.66Zm8.57-22.57a3.88,3.88,0,0,1,2.54.95.85.85,0,0,0,.7.2.88.88,0,0,0,.57-.41,5.32,5.32,0,0,1,2-2.22,5.6,5.6,0,0,1,8.45,4.79v.08a.84.84,0,0,0,.37.7.81.81,0,0,0,.78.08,4.05,4.05,0,0,1,1.69-.3,3.92,3.92,0,0,1,3.65,3.5,3.51,3.51,0,0,1,0,1,.82.82,0,0,0,.35.82.8.8,0,0,0,.89,0,4.46,4.46,0,0,1,2.26-.62,4.41,4.41,0,0,1,3.88,6.49c-1.35-.13-2.6-.2-3.68-.25-2.61-1.46-14.39-8-19.34-10.57a28.46,28.46,0,0,0-8.49-2.22A3.88,3.88,0,0,1,111.18,14.09Z"/><text class="b" transform="translate(4.7 74.67)">CarShine</text></svg>